#!OML:ASF H:\Punching\Project 1\Capture day 1\Session 1\female.ASF
:FULLY-SPECIFIED
:DEGREES
2929
root 0.475799 15.7201 8.249 19.5868 7.83651 0.402802
lowerback 2.75742 0.112323 0.866496
upperback -4.88003 0.224174 0.260106
thorax -6.6175 0.0768542 -0.233755
lowerneck -13.6243 2.32543 9.18567
upperneck 18.5401 2.48436 -6.38798
head 8.18678 1.19867 -3.3923
rclavicle -9.93923e-017 -7.95139e-016
rhumerus -30.2123 27.069 -94.6513
rradius 91.0182
rwrist -24.4031
rhand -2.42417 -11.3961
rfingers 7.12502
rthumb 23.2665 -40.0105
lclavicle -9.93923e-017 -7.95139e-016
lhumerus -38.4493 -41.5476 104.533
lradius 109.025
lwrist -0.0040938
lhand -19.615 7.00968
lfingers 7.12502
lthumb 6.71152 36.8833
rfemur -38.6116 5.71758 -1.43533
rtibia 21.6738
rfoot 7.92216 -25.5376
rtoes 2.70306
lfemur -6.87345 -7.57415 -11.4502
ltibia 2.54444e-014
lfoot -8.50324 16.596
ltoes -11.858
2930
root 0.575125 15.735 8.18108 19.5349 7.38909 0.497658
lowerback 2.59665 0.102598 0.634794
upperback -4.9347 0.19749 0.287979
thorax -6.58344 0.0761537 -0.0723221
lowerneck -13.5283 2.46002 9.31834
upperneck 18.6079 2.69032 -6.57226
head 8.21388 1.28963 -3.45539
rclavicle 2.48481e-016 9.34288e-015
rhumerus -31.1992 26.6063 -95.7159
rradius 92.0599
rwrist -24.4431
rhand -2.07485 -11.2906
rfingers 7.12502
rthumb 23.6016 -39.8621
lclavicle 2.48481e-016 9.34288e-015
lhumerus -38.3056 -41.9994 104.682
lradius 108.993
lwrist 0.0779137
lhand -19.8022 6.98922
lfingers 7.12502
lthumb 6.53079 36.8685
rfemur -38.2727 7.20101 -2.49065
rtibia 20.8018
rfoot 7.18817 -27.4844
rtoes 4.89144
lfemur -6.92188 -7.59224 -12.0536
ltibia 2.54444e-014
lfoot -8.44598 16.7454
ltoes -11.3425
2931
root 0.669553 15.7473 8.11519 19.475 6.99597 0.604161
lowerback 2.45357 0.0843873 0.409255
upperback -4.98845 0.160156 0.308729
thorax -6.55853 0.0696535 0.0789509
lowerneck -13.4283 2.57875 9.45092
upperneck 18.6635 2.87789 -6.7708
head 8.23535 1.37051 -3.52532
rclavicle -1.02871e-014 4.77083e-015
rhumerus -32.2078 26.1124 -96.795
rradius 93.0253
rwrist -24.5212
rhand -1.80521 -11.1009
rfingers 7.12502
rthumb 23.8602 -39.6389
lclavicle -1.02871e-014 4.77083e-015
lhumerus -38.2445 -42.4788 104.834
lradius 108.975
lwrist 0.198276
lhand -19.994 6.9976
lfingers 7.12502
lthumb 6.34562 36.8826
rfemur -37.9587 8.36441 -3.27965
rtibia 20.2434
rfoot 5.87374 -29.0061
rtoes 6.65673
lfemur -8.11355 -7.71329 -12.6456
ltibia 2.26782
lfoot -9.54273 17.0678
ltoes -10.8155
2932
root 0.759365 15.7581 8.05108 19.403 6.65454 0.695008
lowerback 2.33123 0.0603336 0.21949
upperback -5.04253 0.117655 0.329028
thorax -6.5457 0.0587824 0.209974
lowerneck -13.3411 2.68856 9.56915
upperneck 18.7279 3.05619 -6.97021
head 8.26163 1.44585 -3.59442
rclavicle -3.57812e-015 -4.96962e-015
rhumerus -33.2418 25.5905 -97.8835
rradius 93.9225
rwrist -24.6873
rhand -1.58866 -10.888
rfingers 7.12502
rthumb 24.0679 -39.3987
lclavicle -3.57812e-015 -4.96962e-015
lhumerus -38.2695 -42.961 104.991
lradius 108.972
lwrist 0.347679
lhand -20.1636 7.03163
lfingers 7.12502
lthumb 6.18192 36.9214
rfemur -37.6438 9.08098 -3.68209
rtibia 19.9776
rfoot 4.25664 -29.9166
rtoes 7.81729
lfemur -8.92882 -7.86376 -13.1776
ltibia 3.77318
lfoot -10.237 17.3667
ltoes -10.3019
2933
root 0.844778 15.7677 7.98904 19.3073 6.35251 0.743595
lowerback 2.23319 0.0323854 0.0824236
upperback -5.09369 0.0738971 0.359701
thorax -6.54354 0.0449417 0.322255
lowerneck -13.2642 2.79647 9.66876
upperneck 18.8014 3.23605 -7.17012
head 8.29325 1.52051 -3.66063
rclavicle -1.1778e-014 1.39149e-014
rhumerus -34.2993 25.0716 -98.9769
rradius 94.7414
rwrist -24.9596
rhand -1.43495 -10.6554
rfingers 7.12502
rthumb 24.2152 -39.1465
lclavicle -1.1778e-014 1.39149e-014
lhumerus -38.3832 -43.4132 105.158
lradius 108.973
lwrist 0.503694
lhand -20.3108 7.07338
lfingers 7.12502
lthumb 6.03973 36.9673
rfemur -37.296 9.35255 -3.66003
rtibia 19.9573
rfoot 2.54441 -30.2165
rtoes 8.41225
lfemur -9.62048 -8.03348 -13.6322
ltibia 5.05741
lfoot -10.8101 17.6656
ltoes -9.7831
2934
root 0.925595 15.7766 7.92973 19.1725 6.08406 0.734067
lowerback 2.16311 -5.50757e-005 0.00219727
upperback -5.13387 0.0285016 0.40906
thorax -6.54564 0.0279442 0.422197
lowerneck -13.2008 2.90805 9.7545
upperneck 18.8846 3.42484 -7.37516
head 8.33182 1.59775 -3.72546
rclavicle -4.52235e-015 -7.95139e-016
rhumerus -35.368 24.5937 -100.066
rradius 95.4704
rwrist -25.358
rhand -1.37661 -10.4053
rfingers 7.12502
rthumb 24.2712 -38.889
lclavicle -4.52235e-015 -7.95139e-016
lhumerus -38.5807 -43.8007 105.334
lradius 108.971
lwrist 0.638454
lhand -20.4274 7.08981
lfingers 7.12502
lthumb 5.92716 36.9869
rfemur -36.8823 9.2831 -3.24911
rtibia 20.1298
rfoot 0.849528 -30.0379
rtoes 8.62358
lfemur -10.2158 -8.21354 -13.9959
ltibia 6.22325
lfoot -11.3222 17.9658
ltoes -9.27069
2935
root 1.00206 15.7848 7.87365 18.9859 5.82868 0.668836
lowerback 2.12032 -0.0330041 -0.0293808
upperback -5.15028 -0.0141011 0.47297
thorax -6.53809 0.0102123 0.50975
lowerneck -13.1591 3.02899 9.83501
upperneck 18.9716 3.62715 -7.58374
head 8.37755 1.68022 -3.78912
rclavicle -1.2921e-015 1.03368e-014
rhumerus -36.4226 24.1889 -101.141
rradius 96.0974
rwrist -25.904
rhand -1.40833 -10.1556
rfingers 7.12502
rthumb 24.2408 -38.6433
lclavicle -1.2921e-015 1.03368e-014
lhumerus -38.8512 -44.1137 105.51
lradius 108.962
lwrist 0.727527
lhand -20.5161 7.074
lfingers 7.12502
lthumb 5.84153 36.9735
rfemur -36.3892 8.97813 -2.51988
rtibia 20.4545
rfoot -0.768762 -29.5004
rtoes 8.44859
lfemur -10.7018 -8.38612 -14.2814
ltibia 7.29699
lfoot -11.8156 18.2536
ltoes -8.72282
2936
root 1.07492 15.7921 7.81992 18.7679 5.56843 0.55173
lowerback 2.09177 -0.0680587 -0.0248141
upperback -5.14918 -0.0563875 0.559013
thorax -6.52005 -0.00864175 0.600011
lowerneck -13.1119 3.16127 9.92183
upperneck 19.0377 3.84979 -7.81968
head 8.41857 1.76996 -3.86061
rclavicle 9.98893e-015 0
rhumerus -37.4572 23.9218 -102.19
rradius 96.6113
rwrist -26.604
rhand -1.61948 -9.88527
rfingers 7.12502
rthumb 24.0383 -38.3999
lclavicle 9.98893e-015 0
lhumerus -39.1795 -44.3125 105.691
lradius 108.929
lwrist 0.747603
lhand -20.5848 6.97503
lfingers 7.12502
lthumb 5.77518 36.8763
rfemur -35.8456 8.465 -1.52527
rtibia 20.9028
rfoot -2.28155 -28.6337
rtoes 7.94487
lfemur -11.1073 -8.53391 -14.4985
ltibia 8.29957
lfoot -12.2983 18.522
ltoes -8.14861
2937
root 1.14491 15.7985 7.76802 18.5315 5.27584 0.397573
lowerback 2.07566 -0.0943248 0.0124703
upperback -5.13627 -0.0850602 0.647221
thorax -6.49673 -0.0224103 0.673095
lowerneck -13.057 3.30181 10.0245
upperneck 19.0789 4.08312 -8.06822
head 8.45239 1.86462 -3.9375
rclavicle -2.21645e-014 1.53064e-014
rhumerus -38.4661 23.7906 -103.218
rradius 97.0116
rwrist -27.4663
rhand -1.96724 -9.59727
rfingers 7.12502
rthumb 23.7048 -38.1555
lclavicle -2.21645e-014 1.53064e-014
lhumerus -39.5827 -44.4321 105.878
lradius 108.886
lwrist 0.70028
lhand -20.6483 6.82811
lfingers 7.12502
lthumb 5.71389 36.7311
rfemur -35.2785 7.77195 -0.33065
rtibia 21.459
rfoot -3.69794 -27.4871
rtoes 7.10833
lfemur -11.447 -8.63582 -14.6748
ltibia 9.24484
lfoot -12.784 18.7685
ltoes -7.54587
2938
root 1.21302 15.8034 7.71748 18.294 4.92224 0.21577
lowerback 2.06287 -0.103083 0.0800108
upperback -5.11771 -0.0891649 0.726894
thorax -6.46965 -0.0258146 0.71841
lowerneck -12.9906 3.44956 10.1452
upperneck 19.0911 4.32352 -8.3213
head 8.47655 1.96358 -4.01775
rclavicle -1.36664e-014 1.2921e-014
rhumerus -39.4429 23.8056 -104.226
rradius 97.2933
rwrist -28.4792
rhand -2.44424 -9.27936
rfingers 7.12502
rthumb 23.2473 -37.8961
lclavicle -1.36664e-014 1.2921e-014
lhumerus -40.0665 -44.4753 106.076
lradius 108.836
lwrist 0.586558
lhand -20.7145 6.63468
lfingers 7.12502
lthumb 5.65001 36.5394
rfemur -34.7254 6.9078 1.01659
rtibia 22.1098
rfoot -4.97101 -26.0818
rtoes 5.86457
lfemur -11.7484 -8.66824 -14.8336
ltibia 10.164
lfoot -13.2917 18.9955
ltoes -6.92226
2939
root 1.28032 15.807 7.66854 18.0665 4.47943 0.0115337
lowerback 2.04482 -0.0855396 0.179177
upperback -5.10126 -0.0573037 0.789601
thorax -6.44224 -0.0134687 0.725577
lowerneck -12.9016 3.60177 10.2846
upperneck 19.0756 4.56666 -8.57243
head 8.48909 2.0658 -4.0998
rclavicle 2.23633e-015 1.98785e-015
rhumerus -40.3962 23.9612 -105.219
rradius 97.4622
rwrist -29.6045
rhand -3.03239 -8.93139
rfingers 7.12502
rthumb 22.6829 -37.6183
lclavicle 2.23633e-015 1.98785e-015
lhumerus -40.6472 -44.4373 106.294
lradius 108.79
lwrist 0.417546
lhand -20.7913 6.4009
lfingers 7.12502
lthumb 5.57581 36.3075
rfemur -34.2103 5.90792 2.46404
rtibia 22.8469
rfoot -6.13847 -24.435
rtoes 4.26287
lfemur -12.0252 -8.6653 -14.984
ltibia 11.0761
lfoot -13.8283 19.2705
ltoes -6.2718
2940
root 1.34709 15.8091 7.62112 17.8607 3.94331 -0.214076
lowerback 2.01136 -0.0395703 0.315005
upperback -5.09018 0.0132979 0.830902
thorax -6.41201 0.0156521 0.686983
lowerneck -12.7931 3.75836 10.444
upperneck 19.037 4.81075 -8.81591
head 8.49189 2.17116 -4.18221
rclavicle -6.16232e-015 1.39149e-015
rhumerus -41.316 24.2459 -106.194
rradius 97.5188
rwrist -30.7867
rhand -3.6814 -8.56891
rfingers 7.12502
rthumb 22.0599 -37.3307
lclavicle -6.16232e-015 1.39149e-015
lhumerus -41.3218 -44.3209 106.53
lradius 108.749
lwrist 0.218373
lhand -20.885 6.13143
lfingers 7.12502
lthumb 5.48539 36.0404
rfemur -33.7518 4.80675 3.97712
rtibia 23.665
rfoot -7.21113 -22.582
rtoes 2.33551
lfemur -12.2973 -8.63141 -15.1268
ltibia 11.993
lfoot -14.4077 19.6099
ltoes -5.61696
2941
root 1.41345 15.8097 7.57571 17.6792 3.316 -0.460613
lowerback 1.95479 0.0338818 0.48833
upperback -5.08703 0.121223 0.850313
thorax -6.37685 0.0608241 0.601887
lowerneck -12.6578 3.91745 10.6273
upperneck 18.981 5.05344 -9.05174
head 8.48538 2.27908 -4.26612
rclavicle -2.73329e-016 -2.78299e-015
rhumerus -42.2008 24.6453 -107.153
rradius 97.4663
rwrist -31.9667
rhand -4.3678 -8.19525
rfingers 7.12502
rthumb 21.4007 -37.0333
lclavicle -2.73329e-016 -2.78299e-015
lhumerus -42.0907 -44.1235 106.787
lradius 108.723
lwrist 0.0197846
lhand -20.999 5.85422
lfingers 7.12502
lthumb 5.37529 35.766
rfemur -33.3655 3.65792 5.51983
rtibia 24.5946
rfoot -8.26448 -20.5738
rtoes 0.223211
lfemur -12.5962 -8.57296 -15.2618
ltibia 12.9749
lfoot -15.062 20.0218
ltoes -4.92833
